<?xml version="1.0" encoding="UTF-8"?>
<svg version="1.1" viewBox="0 0 2000 2000" width="500" height="500" xmlns="http://www.w3.org/2000/svg">
<path transform="translate(0)" d="m0 0h2e3v2e3h-2e3z" fill="#FDFDFD"/>
<path transform="translate(1103,834)" d="m0 0h71l14 1 16 4 16 8 12 11 7 11 5 12 1 5v19l-4 13-8 13-7 7-9 6-4 1-1 2 9 1 12 5 9 7 8 10 7 15 2 10v19l-3 13-7 14-9 11-10 8-10 6-15 6-20 4-24 1h-84l-17-1v-3l3-4 3-17v-191l-2-14-4-12z" fill="#587AF6"/>
<path transform="translate(892,803)" d="m0 0h23l24 3 21 7 21 10 12 8 14 11 15 15 12 17 9 16 8 20 5 19 1 11v36l-2 17-5 17-7 18-9 15-8 11-9 11-12 11-10-2-4-2-8-1-2-4 12 1-8-4 4-8 3-5-3 1-3 3-3-1 2-5 15-1 11-4 5-5 8-10-1-4-4-2-7 1v-6l1-5h-5l-3 3v-5l-7 1-3-5-6 4-1 4 5 1-1 4-3 8h-3v2h-2l1-4 2-4-1-3-8 1 1 3 1 5-4 1-7-3 1 4-3-1v3l3-1 2 5h2v2h-3v-2h-6l-2-2h2l-1-4h-3v2l-10 1 1 6-3 2-1-5-1-1-3-1-3 1-4-2-12 4-5-1-3-1-1-6-8 1-2-3-1 2h-2v2h-2l1 3-4 3-7-3h-3l-1 2-5-1v-2h-4l3 3 7 3 1-2 5 5 6 9v2l-4 1v-2l-11-1-2 4h-2v3h-2l-1 2h-5v-2h-4v3h3v2h5l-2 3-6-2-2 3h6l5 1v2l4 1 2 1-1-3 6-1 4 2-1-4 5-1 2 3-5 5-4 3-5-2-4 2h-22l-7-3v2h-6v-2l7-2-1-2h-7l-8 1-1-3h-2l-1 5h-5v-5l-5-3v-3h-7l-1 3-10-5-3-2v-4l-2 1-1-6 4 1-2-2-3-1-1 2-3-1-2 1-1-4 3-4h10l-1-5-3 1-2-1v-2h-2l-3-3-2-1v-2h-2v-2l3-1 1-2h3l1-3 3 2-5-5v-2l10 3 1 2 4 1-1 5 2 1-1 2-3 1-2 3v4l7-4h2l1 5h-6v3l3 1 1 4-4 2 1 5 7 2h2l2-4 8 1 4 1v2l7 1-1-7-3-1v2l-6-1-9-3h-4l-2-6 3-1v2h3l-2-4-3-3 8-1v4h2l1-2 3 1 1 3 3 2 1-4 5 1-1 3 5-1 5 1 3-2 13-2 2 1v-2l10-4-1-1-22-1-3 1v5l-8 1 1-3 3-1 3-4h2l-1-3-5-4v3l2 1v2h-7v-4l-5 1-1-4h-5-3l-5-1-2-2-2-5-2-3h2v-2h-9l-7-4 2 6 5 1 2-1v3l5 2 1 2-2 4-5-2v-2l-6-2-7-4v-2h-3l-5-5-4-2-3-4 2-1 2 1v-2h-3v-6l-5-1-2-4-3-3-9-5v-2h-4l-1-7h-2l-2-13v-6l1-3-1-1 1-7 4 2v11h2v-2l4-3 1-5 3-1v2l4 1 4 2-1 3-3 3-3-3v-4h-2v6 4 5l7 1-3-3-2-6 6 2v-2h2v3l2 1-1 7 4 2 5 4 1-1h6l6 5 2 3 1 9 2 3 9 2 1-4 10-4 2-6 5 1 1 3 4 1 1 4 4 2-1-6 2-2 1 2v7l-1 5h7l1 2-2 2h3l1-2h2l3 4-2 6h2l2 3 3 1-2-5 4-3 6 2h3l1-2 4 7 6 2v-3l-5-2 2-6 4-2-2-7h2v-2l-3-1 1-3h6l-4-6-6-7-2-6 5-4 5 4 2-2v5h2v-2h4l-1 9 1 1v9l6 2 9 4v-3l-2-2-1-9-2-2v-8l1-2-4 1-5-1v-2h2l-1-3 4-1 1-7-4 2-2-2-1-4-3 1-2 3-1-4h2v-2l-4 1v-7l-6-4-1-4-4 2-1 5 1 4-2 4h-2l-2-7-3 1-3-2 2-5-3-3h-2l-2-8 4 1-3-3 3-9 4-2 9-2 1-3-4-2h9l1-3-2-2-6-2 1-2 10-2 5-4 3-3 2-4 4-1 5 10 1 7 1 1v9h3l1-5-6-18v-9l-2-4-6-5-5-3v-2l-4 2-2 2h-3v-5h3v-2h2v-2h3v3l6-1-4-4-2-1v-3l5 1 5 5 7 3 1 1 14 2-1-4h8l-5-6-1-3-5-4v-3l-3-1-1-8-2-4h-6l-5-3-2-3-7 1-6-2-1-2-11 1-3-1-2 1h-7l1-2-5-1-10 4-6 1-5 4-6 2-4 1-4 2-7 1-3 2h-3v2h-5l-1 2-2-2 17-12 23-11 15-5 19-3z" fill="#21263F"/>
<path transform="translate(1383,831)" d="m0 0h26l15 3 13 5 10 6 7 8 1 7v170l1 28 2 10 3 5v3l-8 1h-47l-17-1 2-5 3-8 2-16v-41l-1-1h-61l-3-1 2 10 7 25 7 16 7 12 5 7v2l-14 1h-44l-11-1-3-6-8-29-4-20-3-22v-39l4-24 8-24 8-16 10-16 11-13 10-10 13-9 7-4 8-4 18-6z" fill="#587AF6"/>
<path transform="translate(863,815)" d="m0 0 6 2v1l8-1 4 1 9-1 1 3 8 1 6-1 2 4 4 2 6 1 3 5 1 7 2 1 3 5 3 2 3 5 3 4-4 1h-4v3l-14-1-4-3-5-2-6-5-3-1v3l5 2 1 3-6 1v-3h-3v2h-2v2h-3l1 4 4-2 4-1 3 3 6 4v2l4 2 1 5v7l4 11 2 7-1 5-3 2-2-3v-8l-1-1-2-10-3-6-4 1-3 5-6 5v1l-11 2 6 3 2 3-2 3h-7l2 1-1 4-11 3-2 1-2 6-1 2 3 1v2h-3v4l2 1-1 2 3-1 3 5-3 4 6 1 2 4v3l2-1 1-4-1-7 4-4 3 1 1 4 6 4v6h3v3l4-2 2 2 1 4 5-2v6l-2 3-3 1v2h-2v2l3-1 6 1v10l2 2 1 9 3 5-2 1-9-4-6-3-1-9-1-1v-6l2-3h-4v2h-2l-5-5-3-1-3 4 4 8 7 8v2h-6v3l2 1v2h-2l2 3v4l-3 2-3 6 5 1 1 4-3 1-5-3-3-5-6 1-4-2-3 3 1 4-4-1-1-3h-2l1-6-2-4h-2l-1 3-4-1 1-3-6-1v-12l-1 2v4l-5-2-1-4-3-1-2-3-4-1v5l-3 3-9 3-1 3-9-1-3-4v-5l-2-1h2l-2-6-4-2-2-2-6-1-1 2-9-7-1-5v-3-3h-2v2l-5-1 3 6 2 3-8-1-1-4 1-5-1-5 1-2h2l2 5h2l3-4-4-1-6-2-1 5-5 2v2h-2l-1-9 1-2h-4v5l1 2-1 4 1 14v3h2l1 7h4l1 2 2-1v3l6 2 1 3 3 1 2 4 4 1 1 4-1 2h3v2h-3l2 4 4 1 6 4 10 8 5 2v2l5 1 1-4-5-3-1-2-2 1-4-2-2-3v-3l6 2 2 1 8 1v4l3 5 2 3h5 2l5 1 1 4 5-1 1 3 6 1v-2l-3-1 1-4 3 2v2l3 1v3l-5 5-3 1-1 2 2-1h6v-5l3-2 22 1 2 3-7 3h-4v2l-10 1-9 3-9-1v-3l-4-1-1 5-1-2-3-1v-3l-6 1v-4l-7 2 4 2v4l-4-1v2 4l5-1 14 5v-2l4 1v7l-7-1v-2l-8-1-4-1-2 5-6-1-3-2-1-5 3-3-1-3-2-1v-3h6l-1-5-6 3-3 1-1-6 3-2h3l-1-6 1-2-5-1v-2l-5-1-5-2v2l4 2 1 3-3-1v3l-4-1-1 3h-3v2h2v2l5 2v2h2v2h5l1 5-9 1-3 4 1 2 2-1h3 2l2-3 1 6-4-1 2 5 2-2-1 6 4 2 9 4 3-3 5 1 1 3 5 3-1 5h5l1-5h2l1 2 15-1 2 3-5 2h-3v2h6v-2l7 2h22l2-2 4 1h4l6-4 1-3-4-1h-2l1 4-8-1-1 3-6-2v-2l-3 1-8-2 2-4 6 2 1-1-4-1v-2h-3v-3h4v2l8-2v-3l3-3 1-2 9 1 3 2h3l-5-7-3-5v-2h-4l-5-1-5-3v-2h4v2l5 1 1-3 6 1 5 2 2-3v-2h2v-2h2l1-3 3 3 5-1 3 3v4l8 1 12-4 5 2 4-1 4 2-2 1 2 4 1-3v-4l3-1h7v-2h3l1 5 6 1v2h3v-2h-2l-3-4h-2v-3l2-1v-2l9 2h2l-2-4h-1v-5l9-1 2 5-4 7h2v-2h3l1-6 2-3v-3l-4-1 1-5 6-4 3 4 4 1h3l1 4 2-3h5l1 4-1 7 6-1 5 3 1 4-9 11h-2l-2 4-7 3-5 2-15 1-1 4h4l1-3h3l-2 5-4 8 10 3-3 2-10-1-2-1 2 3 11 2 1 1 9 2v3l-13 10-11 7h-4v2l-16 7-8 3h-7v2l-13 3-8 1-29 1-23-2-19-5-20-8-20-12-13-11-15-14-11-14-8-13-11-23-5-14-2-12-1-12v-33l3-20 5-16h2l1-5 3-7 2-6 6-11 13-17 9-10 9-9 6-4 9-1v-2l10-4 7-1 1-2h5l9-6 9-2z" fill="#5878F1"/>
<path transform="translate(465,831)" d="m0 0h29l20 3 18 5 16 8 13 9 5 5-1 7-11 31-3 9-3-1-5-6-11-8-9-5-10-4-12-3h-24l-16 4-13 7-12 11-7 9-6 13-4 16v28l4 17 5 13 8 12 9 9 13 8 16 5 12 1 14-2 6-1v-74l2-2h55l1 6v92l-5 5-10 7-14 7-13 4-20 4-13 1h-15l-16-2-19-5-15-6-13-8-13-11-10-11-9-13-9-17-6-18-3-14-1-7v-27l5-25 6-16 9-17 9-12 9-10 13-11 16-9 15-6 17-4z" fill="#597AF6"/>
<path transform="translate(1472,835)" d="m0 0h70l-1 5-3 5-1 4-1 15v163l1 1h24l46-1 12-2 13-4 8-4h4v59l-2 1h-149l-22-1 1-5 3-5 1-7 1-25v-155l-1-25-2-12-2-4z" fill="#597AF6"/>
<path transform="translate(577,835)" d="m0 0h71l1 2-5 9-1 6-1 25v150l5 1 68-1 14-3 13-5 4-3h4v60l-21 1h-133l-19-1 1-5 3-8 2-13v-184l-2-19-4-10z" fill="#597AF6"/>
<path transform="translate(860,825)" d="m0 0 7 1h1l13-1 17 1 10 2 2 4h3l1 6h-3l3 7h2l-1-6 4-1 4 2 3 5 3 2 3 5 3 4-4 1h-4v3l-14-1-4-3-5-2-6-5-3-1v3l5 2 1 3-6 1v-3h-3v2h-2v2h-3l1 4 4-2 4-1 3 3 6 4v2l4 2 1 5v7l4 11 2 7-1 5-3 2-2-3v-8l-1-1-2-10-3-6-4 1-3 5-6 5v1l-11 2 6 3 2 3-2 3h-7l2 1-1 4-11 3-2 1-2 6-1 2 3 1v2h-3v4l2 1-1 2 3-1 3 5-3 4 6 1 2 4v3l2-1 1-4-1-7 4-4 3 1 1 4 6 4v6h3v3l4-2 2 2 1 4 5-2v6l-2 3-3 1v2h-2v2l3-1 6 1v10l2 2 1 9 3 5-2 1-9-4-6-3-1-9-1-1v-6l2-3h-4v2h-2l-5-5-3-1-3 4 4 8 7 8v2h-6v3l2 1v2h-2l2 3v4l-3 2-3 6 5 1 1 4-3 1-5-3-3-5-6 1-4-2-3 3 1 4-4-1-1-3h-2l1-6-2-4h-2l-1 3-4-1 1-3-6-1v-12l-1 2v4l-5-2-1-4-3-1-2-3-4-1v5l-3 3-9 3-1 3-9-1-2-2v-10l5-3-1-3-5-4-1-3-2-1-1-5h-2v-2l-9-2-2-6h-2v-2h2l-1-4 5-1h2l-1-8h2l-2-9h2l1-6 5-3v-7l1-1 1-7h2l1-5h3l3 9 6 9 2 1 1 5h-2v4l-3 1 4 1 1-4 7-3-7-6-3-5-3-2v-9l-1-3h2l2-4-2-1 5-5-2-7 3-5h3l2-4 1-3 4-3 11 1v-4h-5l-2 1v-2h-8l-4 2-2 5-5 1 2-8 4-7h-5l2-1-1-4 2-2h3l1-4h4l-1 7 3-2 2-4 4-2 10-2 7-3h3l1-5z" fill="#9CA7CD"/>
<path transform="translate(994,1006)" d="m0 0 4 4 4 1h3l1 4 2-3h5l1 4-1 7 6-1 5 3 1 4-9 11h-2l-2 4-7 3-5 2-15 1-1 4h4l1-3h3l-2 5-4 7h-2v-2h-5v-2h-2l-1 3-4 1v-2h-4v6l11 1 1 3-1 2h-2v2h5l1 3-1 4-3 1v-2l-9-1-4 2-1 2 3 1-1 4-4 2v-2l-7 1v2l5 1 1 3-6 2-2 3-10 1-7-1-2-2 1-4 5-2 1 3 5-1-1-3 5-2-9-4-4-4v-3l-7 1-1-3 3-3-7 2h-9-4-2v2l5 1 8 2 1 4-5 2v-2l-14 3-10 1-5 1v3l-4-1-2-7h3l2-5 4-1h7v-2l3-2-5-2 2-6 12 1 4 2h6l10-5 3-3-6-2-2-2 1-6 16-1-1-2-3-1 1-2h2l-2-5-2 2-1 2-4-2-1-4 3-2-4 1v4l-12-2h-3l-1 3-4 2-2-1v-3l-5 2h-5-2l4 3 1 6-3 1v-2l-4-2-5-8v-2h-4l-5-1-5-3v-2h4v2l5 1 1-3 6 1 5 2 2-3v-2h2v-2h2l1-3 3 3 5-1 3 3v4l8 1 12-4 5 2 4-1 4 2-2 1 2 4 1-3v-4l3-1h7v-2h3l1 5 6 1v2h3v-2h-2l-3-4h-2v-3l2-1v-2l9 2h2l-2-4h-1v-5l9-1 2 5-4 7h2v-2h3l1-6 2-3v-3l-4-1 1-5z" fill="#9CA7CE"/>
<path transform="translate(1136,1138)" d="m0 0h40l10 2 10 4 10 9 4 9v12l-3 8-9 8-4 3 11 18 8 10 6 5v2h-30l-1-2 4-4-1-6-10-16-2-4-2-1-16-1v27l9 3v4h-33l-1-4 8-4v-76l-7-1z" fill="#21253D"/>
<path transform="translate(933,1138)" d="m0 0h39l14 3 10 5 7 7 4 10v11l-3 8-8 7-5 4 11 18 8 10 6 5v2h-30l-1-2 4-4-1-6-10-16-3-5-18-2 1 27 9 4-1 4h-31l-2-1 1-4 6-2 1-5v-72l-7-1z" fill="#21253D"/>
<path transform="translate(863,815)" d="m0 0 6 2v1l8-1 4 1 9-1 1 3 8 1 6-1 2 4 4 2 6 1 3 5 1 6-5 1 1 7-4-1-2-6-2-2 5 1-2-5-3-1-1-4-10-1-19-1-10 1h-3l-9-1-1 5-10 4-10 2-4 2-3 5h-2l1-7h-4l-1 4-4 2v4l3 1-1 4-3 5-2 6 5-2 2-5 4-2h6l3 2 3-1 5-1-1 6-3 1-9-1-4 2-1 4-2 3-3 1-2 6 2 5-5 5 1 3-2 3-2-1 2 3v9l5 4 3 5 5 5-8 2-1 4h-5l1-2h3l1-9-4-2-6-10-2-7-4 1-2 3h-2l-1 3h-3v5h-4l-1 4h3l1-3 4 2-1 5-7 8-1 7v4h-2l-3-12 4-9h-2l-5 2-1 3-2-1v-2l-4-1-2 4-3 1-5-3-1 4-1 2 4 3-1 2-2-1v-2l-4 3-3 2 1-9v-4h-3l2-9 5-12 2-6 6-11 13-17 9-10 9-9 6-4 9-1v-2l10-4 7-1 1-2h5l9-6 9-2z" fill="#5879F4"/>
<path transform="translate(1124,972)" d="m0 0h49l12 3 10 6 5 8 2 7v8l-3 9-4 6-6 5-7 3-15 2h-42l-1-1z" fill="#FEFEFE"/>
<path transform="translate(1037,1138)" d="m0 0h39l10 2 12 6 5 4 6 10 1 3v14l-5 10-8 6-9 3-9 1h-9l-8-1v23l1 2 9 3 1 3-2 1h-32l-2-1 1-4 6-2 1-4v-73l-7-1z" fill="#21253D"/>
<path transform="translate(1394,883)" d="m0 0 3 2v69l-1 2h-64v-7l6-20 8-16 8-10 9-9 16-8 7-2z" fill="#FEFEFE"/>
<path transform="translate(624,1138)" d="m0 0h15l9 10 13 17 12 15 12 16 7 9v-57l-1-3-8-3v-4h26v4l-8 4-1 5v62l6 12v3h-17l-7-11-12-15-9-12-14-18-6-8-1 12v41l1 3 8 4 2 3-2 1h-25l-2-1 2-4 8-4v-65l-8-12z" fill="#21253D"/>
<path transform="translate(1125,882)" d="m0 0h33l15 2 8 5 5 8 1 3v9l-4 8-5 5-5 3-5 1-17 1h-26l-1-1v-43z" fill="#FEFEFE"/>
<path transform="translate(894,1136)" d="m0 0h6l5 20v4l-5-1-8-12-4-3h-26l-1 36 22-1 3-8h4l3 10 2 9v4h-4l-4-6-6-2-19-1v34l1 2 7 1h17l6-2 6-10 5-8h3v7l-4 18-4 3-4-1-56-1-2-1 1-4 7-1v-74l-1-4-7-2v-4l54-1z" fill="#21253D"/>
<path transform="translate(585,1136)" d="m0 0h5l3 8 3 12-1 5-5-3-6-10-5-4h-26v36l23-1v-8l2-1 4 3 4 17v4l-4-1-4-5-7-2-18-1v34l1 2 5 1h20l6-3 7-12 3-5h3l1 3-5 21-3 4-4-1-57-1-2-1 1-4 7-1v-78l-7-1-1-5 54-1z" fill="#21253D"/>
<path transform="translate(1463,1136)" d="m0 0 5 1 5 19v4l-5-1-7-11-5-4h-26l-1 36h23l1-8 5-1 4 14 1 9-4-1-4-5-5-2-20-1v34l1 2 7 1h14l9-2 7-11 4-7h3v7l-4 18-2 2-61-1-3-1 1-4 7-3v-76l-7-1-1-5 54-1z" fill="#21253D"/>
<path transform="translate(738,1136)" d="m0 0 9 1h50l9-1 3 9 2 11v8l-5-2-8-15-2-2-6-1h-9v76l8 5v3h-33l1-5 6-2 1-6v-72l-16 1-2 4-8 14-4 1-1-4 4-20z" fill="#21253D"/>
<path transform="translate(1338,1136)" d="m0 0h10l13 4h4l2-3 4 1 7 21v5l-5-1-8-11-5-5-7-4-12-1-9 3-6 5h-2l-2 5-4 8-2 8v20l4 12 6 9 6 5 7 3 11 1 12-3 8-6 6-8h3l-1 8-9 10-8 5-13 3h-8l-14-3-10-5-7-7-7-14-2-8v-17l3-13 6-11 9-9 10-5z" fill="#21253D"/>
<path transform="translate(1240,1138)" d="m0 0h32l1 4-5 2h-3v76l8 5v3h-32l-1-4 7-3 1-2v-75l-7-1z" fill="#21253D"/>
<path transform="translate(804,892)" d="m0 0 3 1h-2l-1 5h-2v7l-1 1v7l-5 3-3 7 1 8h-2l1 8h-2l-1 2v-2l-3 1v4h-2v2l3-1 1 6 7 2 2 1v2h2l1 5 3 1 3 5 4 3-1 3-4 2-1 8h-1v-5l-2-1h2l-2-6-4-2-2-2-6-1-1 2-9-7-1-5v-3-3h-2v2l-5-1 3 6 2 3-8-1-1-4 1-5-1-5 1-2h2l2 5h2l3-4-4-1-6-2-1 5-5 2v2h-2l-1-9 1-2-4-2v-3l3-2v2h3l-1-4-4-4 2-3 4-1v2l2-1-4-3 3-6 7 2 3-4 6 2 8-5 1 2-4 10 2 6v5h2l-1-7 3-7 6-6-1-5h-2l-1 2h-3l1-4h4v-5l3-1z" fill="#5779F6"/>
<path transform="translate(1062,1143)" d="m0 0h8l12 3 7 5 6 12v14l-4 8-7 5-3 1h-19l-1-2v-45z" fill="#F8F9FB"/>
<path transform="translate(934,1036)" d="m0 0 4 1-3 2v4l4 1 2-4 2 1 1 5-2 2h3v3l-5 1h-11l1 3h-2l3 5 6 2-4 4-10 5h-6l-4-2-14-1-2-2h-5l1 4-8-1-1 3-6-2v-2l-3 1-8-2 2-4 6 2 1-1-4-1v-2h-3v-3h4v2l8-2v-3l3-3 1-2 9 1 3 2h3l1-2 3 1-3-7-5-3 4-1 1 1h5l5-1v3l4-1 3-3 5-1 10 3-1-4z" fill="#5778F5"/>
<path transform="translate(957,1143)" d="m0 0h12l10 3 8 7 4 9v15l-4 6-4 4-6 2h-16l-4-2z" fill="#FBFBFC"/>
<path transform="translate(1161,1143)" d="m0 0h10l9 2 6 4 6 8 2 5v15l-6 8-5 3-3 1h-16l-4-2v-43z" fill="#F8F9FB"/>
<path transform="translate(945,905)" d="m0 0 7 3-1 6 1 2 4 1 1-6 1-1h9l3 5 7 1 4 2 7 1-1 7-3 7-3 2-9 1-6 3-7 1-9 2v5l-11 4-5 3 4 4-6 2-7 2-4 1 1-4 8-5 2-7-4-1 1-5 2-2h3l-2-5 1-3 10 1 1-7 2-2h4v-3l-4-1 2-9-3-1z" fill="#9BA6CF"/>
<path transform="translate(781,876)" d="m0 0h5l-2 1v2h-2v2l-9 7-5 7-2 5 8-4h2l2-4 4-4h2l1-3 5-3 5 1 5-1 6 2 2 1v-2l-2-1 5-2 1 1 1 21h-3l-3-9-4 1-2 3h-2l-1 3h-3v5h-4l-1 4h3l1-3 4 2-1 5-7 8-1 7v4h-2l-3-12 4-9h-2l-5 2-1 3-2-1v-2l-4-1-2 4-3 1-5-3-1 4-1 2 4 3-1 2-2-1v-2l-4 3-3 2 1-9v-4h-3l2-9 6-14 4-1 1-3v2l10-10 3 1z" fill="#232843"/>
<path transform="translate(982,1018)" d="m0 0 5 1 1 4-4 7h2v-2h3l1-4 2 2-1 3 2 1-6 2-1 1h-6l-3 7-6 1 2 4-1 4-7 4-10-2-14 2h-10v-1l14-1-1-2-3-1 1-2h2l-2-5-2 2-1 2-4-2-1-4 3-2-4 1v4l-12-2h-3l-1 3-4 2-2-1v-3l-5 2h-5-2l4 3 1 6-3 1v-2l-4-2-5-8v-2h-4l-5-1-5-3v-2h4v2l5 1 1-3 6 1 5 2 2-3v-2h2v-2h2l1-3 3 3 5-1 3 3v4l8 1 12-4 5 2 4-1 4 2-2 1 2 4 1-3v-4l3-1h7v-2h3l1 5 6 1v2h3v-2h-2l-3-4h-2v-3l2-1v-2l9 2h2l-2-4h-1v-5z" fill="#93A2D6"/>
<path transform="translate(802 1e3)" d="m0 0 6 2 2 1 8 1v4l3 5 2 3h5 2l5 1 1 4 5-1 1 3 6 1v-2l-3-1 1-4 3 2v2l3 1v3l-5 5-3 1-1 2 2-1h6v-5l3-2 22 1 2 3-7 3h-4v2l-10 1-9 3-9-1v-3l-4-1-1 5-1-2-3-1v-3l-6 1v-4l-7 2 4 2v4l-4-1v2 4l5-1 14 5v-2l4 1v7l-7-1v-2l-8-1-4-1-2 5-6-1-3-2-1-5 3-3-1-3-2-1v-3h6l-1-5-6 3-3 1-1-6 3-2h3l-1-5 2-3 4-1 1-4-5-3-1-2-2 1-4-2-2-3z" fill="#5270E3"/>
<path transform="translate(949,985)" d="m0 0h2l2 5 6 2h3v4h2v4l5 2 3 2v3l-3 1-4-2-1 5-3 5-2 1v-2h-2l-3-5-6-2h-7l-3-1v-2l-10-2-2-3v-4l9-2 6 1 4-5 3-2z" fill="#94A1D1"/>
<path transform="translate(883,834)" d="m0 0h4l1 4-1 4 1 4 17 2 5 2 5 5 4 1 3-4-2-5-1-4 2-2 2-1 3 5 3 2 3 5 3 4-4 1h-4v3l-14-1-4-3-5-2-6-5-3-1v3l5 2 1 3-6 1v-3h-3v2l-2-1 2-4h2v-2l-7 3-11 1h-3l-5-5 1-3 3-2h7v-7z" fill="#5777EF"/>
<path transform="translate(896,1041)" d="m0 0 10 1 5-1v3l4-1 4-2 2 1-1 3-2-1-1 4h-9l2 4v3l4 1 2 2-1 1h-6v-2l-5 1-4 2-10 2v2l-4 3-11 2-8-2 2-4 6 2 1-1-4-1v-2h-3v-3h4v2l8-2v-3l3-3 1-2 9 1 3 2h3l1-2 3 1-3-7-5-3z" fill="#5576F1"/>
<path transform="translate(771,1039)" d="m0 0 5 2 12 16 1 3 4 2 8 11 3 2v2l9 2 12 5 12 6 1 6-7 1-10-5-13-9-12-11-8-7-12-14-6-10z" fill="#9DA8CF"/>
<path transform="translate(945,887)" d="m0 0 4 1 1 3h6l2 1-2 7 2 1-1 5-6 1-10-2 1 5v4l-3 2-5-1v-5l-4-1-5-5-2-6 4-2 8 4h2l7-9z" fill="#96A3D2"/>
<path transform="translate(982,1018)" d="m0 0 5 1 1 4-4 7h2v-2h3l1-4 2 2-1 3 2 1-6 2-1 1h-6l-3 7-6 1 2 4-1 4-7 4-10-2h-8l2-4h-2v-2l6-1 1 4 1-3 4-1 2-5h3l1 4h2v-4h3l-1-3h2v2h3v-2h-2l-3-4h-2v-3l2-1v-2l9 2h2l-2-4h-1v-5z" fill="#5574E7"/>
<path transform="translate(751,978)" d="m0 0 4 5 7 3h4l4 2 4-1v2l5 1-1 2-3-1 1 7 8 3 1 3 4 1v2l-5-1-8-3 1 7-5-2-4-4-6-3-3-3v-2h-3l-4-9-1-2z" fill="#A8B1D2"/>
<path transform="translate(802 1e3)" d="m0 0 6 2 2 1 8 1v4l3 5 2 3h5 2l5 1 1 4 5-1 1 3 6 1v-2l-3-1 1-4 3 2v2l3 1v3l-5 5-10 2-3-7h-7l-1 2-6-2 2-1v-2h-5v-2l-6-1v-2l4-1 1-4-5-3-1-2-2 1-4-2-2-3z" fill="#8A9BDC"/>
<path transform="translate(844,867)" d="m0 0h4v6l-1 2 1 4 3 1 1 7h2l-1 5-3 1-2 6-1 2-7 2-4-3v-3l4-1 1-3h-2l-1 2-2-4-4-1-2-1 2-4h2l1-3 3-3v-2l6-2-1-6z" fill="#5877ED"/>
<path transform="translate(994,1006)" d="m0 0 4 4 4 1h3l1 4 2-3h5l1 4-1 7 6-1 5 3 1 4-7 9-1-2h-4l-1-6v-3l-5 1 3-9-9 3-3 4h-2l-4-10-4-1 1-5z" fill="#5A7BF5"/>
<path transform="translate(857,914)" d="m0 0h3l2 16 3 2-1 3-3 3h-2l-1-3-2-1 1 4h-2l-4-8-3 11-5-1-1-4-1-7 7-13 3-1h5z" fill="#21253D"/>
<path transform="translate(961,1030)" d="m0 0h3l1 5h4l2 5h-3l-1 4-3-1v-4l-3 1-2 5h-4l-1 4-3-4h-4v2h2l-1 3 3 2-10 1h-10v-1l14-1-1-2-3-1 1-2h2l-2-5-2 2-1 2-4-3h3v-3l3-2v-3l5-1 4 2-2 1 2 4 1-3v-4l3-1h7z" fill="#627DE4"/>
<path transform="translate(877,967)" d="m0 0h2v4l3 1 4 5 2 1v2h4v2h-6v3l2 1v2h-2l2 3v4l-3 2-3 6 5 1 1 4-3 1-5-3-3-5-6 1-2-3h2v-3l2-1 1-4 6-2h3l1-3h-2l-3-8-5-10z" fill="#5C7CF3"/>
<path transform="translate(854,942)" d="m0 0 4 1 4 6v2l4-1 11-4 6 2v4l-2 6h-2l-2-4-4 2-3 1 1 10-3 1-7-2 4-2-3-7v-3l-6-1v-5l-2-2z" fill="#FEFEFE"/>
<path transform="translate(861,1041)" d="m0 0h3l3 3 8-1v-2l5 1v2h7l1 4-7 1-3-1v2l-11 3-2 3h-5l-2-3-4-2v-4h6v-5z" fill="#5778F2"/>
<path transform="translate(921,840)" d="m0 0h2l3 5 3 2 3 5 3 4-4 1h-4v3l-14-1-4-3-5-2-6-5 1-2 8 2 3 1 5 5 4 1 3-4-2-5-1-4 2-2z" fill="#5779F8"/>
<path transform="translate(810,856)" d="m0 0h2v4l3 2-1 3h3v2l-6 1-1-2 1-3-9 10-3 1-1 3-4 1-6 3-4 1 2-4 7-8 11-9h2l2-4z" fill="#9FA9CD"/>
<path transform="translate(854,1028)" d="m0 0 22 1 2 3-7 3h-4v2l-10 1-9 3-4-1-1-3h2v-2h6v-5z" fill="#A2AFDE"/>
<path transform="translate(853,981)" d="m0 0 4 2 3 3v2h7l1 2-4 10 2 1-2 2 1 4-4-1-1-3h-2l1-6-2-4h-2l-1 3-4-1 2-3-1-5h-2l2-4h2z" fill="#5C7BEF"/>
<path transform="translate(833,970)" d="m0 0 9 3 1 3 2 1-1 4v4l-5-2-1-4-3-1-2-3-4-1v5l-3 3-9 3-1 3-9-1-2-4 5 1 2-5h6l3 1 4-2 2-5z" fill="#5779F8"/>
<path transform="translate(941,1040)" d="m0 0 2 1 1 5-2 2h3v3l-5 1h-9l-4-1v2l-3 1-6-4 1-2h4l1-5 6-1-1 4h2l1-3 3-1 4 1z" fill="#21253D"/>
<path transform="translate(876,858)" d="m0 0 3 2v3l-4 1v3l5 1-2 5-2 1-5-2v-2h-2l2 5-1 2-7 1-2 2v-8l4-2 3-1-1-3-2-1-1 3h-2l2-4h3l1-2 2 1v-2l6-1z" fill="#222742"/>
<path transform="translate(884,1050)" d="m0 0 10 1 2 1-1 3h-3l-1 2v-2h-2v2l-4 1v2l2 1-3 1v-2l-5 3-1 5-3 1-8-2 2-4 6 2 1-1-4-1v-2h-3v-3h4v2l8-2v-3l3-3z" fill="#5B7BF5"/>
<path transform="translate(908,1049)" d="m0 0h9l1 5-1 2h2v3h2v2l-10 2h-7v2l-9-1 1-3h7l3-5 3 1v2l6-1-5-3z" fill="#9EA8CD"/>
<path transform="translate(895,1054)" d="m0 0 5 1h4l-1 4-9 2-4 1v2l-4 3-8 1v-5l3-3h3v2l2-1-1-3 4-1v-2z" fill="#21253D"/>
<path transform="translate(994,1006)" d="m0 0 4 4v1l6 1-1 5-2 2-3 7h-2l-4-10-4-1 1-5z" fill="#5C77DD"/>
<path transform="translate(925,895)" d="m0 0 6 2 1 3 5 2 2 2 1 6-3 1 1 3h-4v-5l-4-1-5-5-2-6z" fill="#9BA7D2"/>
<path transform="translate(944,1033)" d="m0 0 6 2-2 1 1 9h-2v2h2l-1 3 3 2-10 1h-10v-1l14-1-1-2-3-1 1-2h2l-2-5-2 2-1 2-4-3h3v-3l3-2v-3z" fill="#7E93E0"/>
<path transform="translate(814,887)" d="m0 0h3l-1 5-3-1 2 3v9l5 4 3 5 5 5-8 2-1 4h-5l1-2h3l1-9-4-2-3-4v-17h2z" fill="#5779F8"/>
<path transform="translate(969,1013)" d="m0 0 14 1 1 2h-6l-3 3h-5l-2 4-9 1-3-3 8-7z" fill="#95A4DA"/>
<path transform="translate(832 1e3)" d="m0 0 3 1 1 5v5l-7 4-1-3 1-2h-2v-2h-6v-5l-2-1h6z" fill="#3C4F9C"/>
<path transform="translate(759,989)" d="m0 0h4l1 2 6 2 3 2v7l3 5h-3l-5-5-10-7 2-1v-3l-2-1z" fill="#FEFEFE"/>
<path transform="translate(802 1e3)" d="m0 0 6 2 2 1 8 1v4l3 5 1 3-7 1 1-5-5-3-1-2-2 1-4-2-2-3z" fill="#5C7CF4"/>
<path transform="translate(1009,916)" d="m0 0h2l-2 6h-3l1 3-3 2v-4l-4 2-1 8-1-2-7-1-1-3 4-4 3-2h8v-2z" fill="#899ADA"/>
<path transform="translate(838 1e3)" d="m0 0 2 1v2l4 1 5 3v2l3 1v2l5 2 1 2h-2v3h-5l2-4-3-1-2-2-6-2-3-4v-2l-3-1z" fill="#7990E3"/>
<path transform="translate(818,1019)" d="m0 0h5v2l6 2v2h3v2l-5 1-1 2-6-2 2-1v-2h-5v-2l-6-1v-2z" fill="#B2BAD6"/>
<path transform="translate(937,1032)" d="m0 0 3 1 2 5-4 1v3l-4-1 1-3 2-1-4 1v4l-10-2 2-4z" fill="#97A3D1"/>
<path transform="translate(919,943)" d="m0 0h5l1 2-1 3-9 3h-2l-1 2-4-3 1-2-6 1v-2l4-2h4 1 5z" fill="#9FA9CD"/>
<path transform="translate(833,970)" d="m0 0 9 3 1 3 2 1-1 4v4l-5-2-1-4-3-1-2-3-4-2z" fill="#6381F0"/>
<path transform="translate(958,1033)" d="m0 0h4v2h7l2 5h-3l-1 4-3-1v-4l-3 1-2 4h-5l-2-4 5-1 2-1z" fill="#95A2D2"/>
<path transform="translate(810,880)" d="m0 0 2 1 1 21h-3l-4-11h2l-1-6 1-2-2-1z" fill="#21253D"/>
<path transform="translate(934,1036)" d="m0 0 4 1-3 2-1 4-3 3h-2v-3h-5l-1 5-6 2-9-1v-1h9l1-4h2l1-2-3-1 3-2 12 3-1-4z" fill="#5779F8"/>
<path transform="translate(904,1057)" d="m0 0 2 2h-2l-1 3h-7v3l-4 1 1 4-8-1-1 3-6-2v-2l12-4v-2l4-2 9-2z" fill="#5779F8"/>
<path transform="translate(894,1065)" d="m0 0 4 1 1 2-5 5-4 3-5-2h-2v-5l6-1 4 2-1-4z" fill="#21253F"/>
<path transform="translate(863,1091)" d="m0 0 4 1 8-1h4v2h8v2h-32l2-2z" fill="#9FA9CD"/>
<path transform="translate(984,939)" d="m0 0h3l1 4-3 4-15 1 1-4 4-2h8z" fill="#8698DB"/>
<path transform="translate(982,1018)" d="m0 0 5 1 1 4-2 3h-3l-1 5-2-1-1-6h-2v-5z" fill="#8F9ED6"/>
<path transform="translate(949,1044)" d="m0 0h4l1 4 1-3h6l2 2-2 4h-14l2-4h-2v-2z" fill="#21263F"/>
<path transform="translate(875,1041)" d="m0 0 5 1v2h7l1 4-7 1-3-1v2h-2l-2-6-2-1h3z" fill="#5779F7"/>
<path transform="translate(908,1041)" d="m0 0h3v3l4-1 4-2 2 1-1 3-2-1-1 4-12 1-1-5h4z" fill="#222742"/>
<path transform="translate(865,1029)" d="m0 0h11l2 3-7 3h-4v2l-4-1 1-3 2-1z" fill="#899AD9"/>
<path transform="translate(832 1e3)" d="m0 0 3 1-1 4h-6l-1 3h-6v-5l-2-1h6z" fill="#8195DE"/>
<path transform="translate(884,1050)" d="m0 0 10 1 2 1-1 3h-3l-1 2v-2h-2v2h-5v-4z" fill="#6F89E9"/>
<path transform="translate(836,1047)" d="m0 0 4 1v7l-7-1v-2l-5-1-1-2h9z" fill="#6582EF"/>
<path transform="translate(943,1041)" d="m0 0h2v3l4 1h-2v2h2l-1 3 3 2-10 1h-10v-1l14-1-1-2-3-1 1-2h2z" fill="#5779F8"/>
<path transform="translate(905,1026)" d="m0 0 3 2 3 1-1 5-3 2-6-1v-4h2v-2h2z" fill="#5373EC"/>
<path transform="translate(842,925)" d="m0 0 1 3-1 4 1 7 5 2-2 3-3-1-1 4-2-1 1-5-3-12 1-2h3z" fill="#5779F8"/>
<path transform="translate(759,995)" d="m0 0 11 7 5 5v-2h2v5l-5-2-4-4-6-3-3-3z" fill="#9FA9CD"/>
<path transform="translate(947,991)" d="m0 0 6 1v2l-5 3-1 6-4-2 1-3 1-5z" fill="#FEFEFE"/>
<path transform="translate(1016,979)" d="m0 0h2l3 4-1 3-4 1-1 1h-5v-4l4-1z" fill="#728BE7"/>
<path transform="translate(938,897)" d="m0 0h1v5l2 1v5l2 4-4 3-2-1-1-4 3-1-2-6-5-4h5z" fill="#5779F8"/>
<path transform="translate(819,910)" d="m0 0 4 2 5 5-8 2-1 4h-5l1-2h3l1-6 4 1-4-5z" fill="#5779F8"/>
<path transform="translate(838 1e3)" d="m0 0 2 1v2l4 1 4 5-4 1-4-2-1-4-3-1z" fill="#B7C1E7"/>
<path transform="translate(872,1044)" d="m0 0h2l2 3v4h-9l1-5h4z" fill="#9BA6CE"/>
<path transform="translate(1009,916)" d="m0 0h2l-2 6h-3l1 3-3 2v-4l-4 1v-2l-3-1h8v-2z" fill="#6985ED"/>
<path transform="translate(937,1032)" d="m0 0 3 1 2 5-4 1v3l-4-1 1-3 2-1-3-2z" fill="#99A5D0"/>
<path transform="translate(969,1026)" d="m0 0 7 2 3 2v2h-2l-1 3-4-2-1-5h-2z" fill="#7F93E0"/>
<path transform="translate(945,905)" d="m0 0 7 3-1 8-4 1 1-7-3-1z" fill="#5779F8"/>
<path transform="translate(879,847)" d="m0 0h9l1 2-5 3h-6l-2-4z" fill="#21253D"/>
<path transform="translate(864,1017)" d="m0 0 3 1-1 4-4 2-5-1-1-4h7z" fill="#7C92E1"/>
<path transform="translate(924 1e3)" d="m0 0 4 2-1 3-6 1-3-2v-3z" fill="#788FE4"/>
<path transform="translate(816,1010)" d="m0 0 4 3 2 6-7 1 1-5-3-3h3z" fill="#587AF6"/>
<path transform="translate(854,972)" d="m0 0 6 1 3 7-1 3-8-9z" fill="#FEFEFE"/>
<path transform="translate(844,915)" d="m0 0h6l-3 5-3 4v-4l-5-1v-2z" fill="#5779F8"/>
<path transform="translate(894,850)" d="m0 0 6 3 1 3-6 1v-3h-3v2l-2-1 2-4z" fill="#6381F0"/>
<path transform="translate(860,968)" d="m0 0 10 1-1 3-7 2-2-3z" fill="#435AB3"/>
<path transform="translate(791,855)" d="m0 0v3l-4 5v3l-4 2-4 4 2-5 6-9z" fill="#9FA9CD"/>
<path transform="translate(878,1033)" d="m0 0h4v2l5 1 1-3 3 1-2 2-1 3-5-1-5-3z" fill="#6F89E9"/>
<path transform="translate(880 1e3)" d="m0 0 7 2 1 4-3 1-5-3z" fill="#8D9DD7"/>
<path transform="translate(952,1038)" d="m0 0 2 1-1 2 1 2 5 1-4 1-1 4-3-4-2-1 1-4z" fill="#5B7BF5"/>
<path transform="translate(944,1019)" d="m0 0 7 3v3l-3 1-5-3z" fill="#8296E0"/>
<path transform="translate(1015,972)" d="m0 0h6l-2 5h-7l2-4z" fill="#8899DA"/>
<path transform="translate(871,920)" d="m0 0 7 1-1 5h-3l-1 2-2-4z" fill="#9FA9CD"/>
<path transform="translate(812,903)" d="m0 0 3 2v2l4 2 1 4 3 1v2l-4-1v-3l-4-2-3-4z" fill="#21253D"/>
<path transform="translate(846,1020)" d="m0 0 3 2v2l3 1v3l-4 2v-2l-2-1h2v-2l-3-1z" fill="#6180F1"/>
<path transform="translate(940,1067)" d="m0 0 4 2v3l-9 1 1-4z" fill="#5779F8"/>
<path transform="translate(818,1019)" d="m0 0h5l-4 2-1 2 4 1-4 1-1-2-6-1v-2z" fill="#96A3D2"/>
<path transform="translate(770,881)" d="m0 0h2l-2 4-3 1-1 4-4 1 1-4 2-4z" fill="#4C5FA7"/>
<path transform="translate(1e3 1012)" d="m0 0h3l-1 5-6 1-1-2 2-3z" fill="#9FA9CD"/>
<path transform="translate(1020,987)" d="m0 0 3 3-6 5-2-4 3-3z" fill="#7F94DF"/>
<path transform="translate(854,1056)" d="m0 0h3v4h7v2h-8l-4-3v-2z" fill="#5779F8"/>
<path transform="translate(896,1041)" d="m0 0 10 1h3l-1 3-4-1-1 4-4-4z" fill="#5373EB"/>
<path transform="translate(865,865)" d="m0 0 3 1v3l-3 3h-4v-6l1 2z" fill="#5779F8"/>
<path transform="translate(844,1052)" d="m0 0 8 1-1 3h-8z" fill="#6582EF"/>
<path transform="translate(958,1038)" d="m0 0 2 1-1 5h-5l-2-4 5-1z" fill="#9FA9CD"/>
<path transform="translate(811,1007)" d="m0 0h7v2h-2v3h-5z" fill="#8396DD"/>
<path transform="translate(888,915)" d="m0 0h4l-1 4-3 2-3-1 1-4z" fill="#9FA9CD"/>
<path transform="translate(944,901)" d="m0 0 4 1 1 1 8 1-3 2-13-2z" fill="#5779F8"/>
<path transform="translate(851,1013)" d="m0 0h5l2 3h-2v3h-5l2-4h-2z" fill="#8C9FE3"/>
<path transform="translate(774,943)" d="m0 0 4 1-1 3-3 3-3-3v-3z" fill="#21253D"/>
<path transform="translate(881,1104)" d="m0 0 5 1 1 4h-8z" fill="#9FA9CD"/>
<path transform="translate(827,1057)" d="m0 0h5v4h-7z" fill="#5779F8"/>
<path transform="translate(829,1013)" d="m0 0h7l-1 3-6 3-1-3z" fill="#6C87EB"/>
<path transform="translate(866,1009)" d="m0 0 4 2-1 4-4 1v-6z" fill="#6C87EB"/>
<path transform="translate(809,939)" d="m0 0 5 2 4 4v2l-5-2-4-4z" fill="#5779F8"/>
<path transform="translate(862,834)" d="m0 0h2l1 1 2-1 4 3h-2v2l-6-1z" fill="#5779F8"/>
<path transform="translate(841,1033)" d="m0 0 2 1v2l2 1-3 3h-3l-1-5z" fill="#5779F8"/>
<path transform="translate(905,1026)" d="m0 0 3 2v3h-2v2h-5v-2h2v-2h2z" fill="#8094DF"/>
<path transform="translate(832 1e3)" d="m0 0 3 1-1 4-7-2v-2z" fill="#8E9DD6"/>
<path transform="translate(757,927)" d="m0 0 5 2v5h-3l-1-2-2 1v-5z" fill="#21253D"/>
</svg>
