<svg xmlns="http://www.w3.org/2000/svg" version="1.1" xmlns:xlink="http://www.w3.org/1999/xlink" xmlns:svgjs="http://svgjs.dev/svgjs" width="1440" height="560" preserveAspectRatio="none" viewBox="0 0 1440 560"><g mask="url(&quot;#SvgjsMask1008&quot;)" fill="none"><rect width="1440" height="560" x="0" y="0" fill="url(&quot;#SvgjsLinearGradient1009&quot;)"></rect><path d="M114.44 267.64L179.4 305.14L179.4 380.14L114.44 417.64L49.49 380.14L49.49 305.14zM49.49 380.14L114.44 417.64L114.44 492.64L49.49 530.14L-15.46 492.64L-15.46 417.64zM179.4 -69.86L244.35 -32.36L244.35 42.64L179.4 80.14L114.44 42.64L114.44 -32.36zM244.35 42.64L309.31 80.14L309.31 155.14L244.35 192.64L179.4 155.14L179.4 80.14zM179.4 155.14L244.35 192.64L244.35 267.64L179.4 305.14L114.44 267.64L114.44 192.64zM244.35 492.64L309.31 530.14L309.31 605.14L244.35 642.64L179.4 605.14L179.4 530.14zM309.31 155.14L374.26 192.64L374.26 267.64L309.31 305.14L244.35 267.64L244.35 192.64zM504.17 267.64L569.12 305.14L569.12 380.14L504.17 417.64L439.21 380.14L439.21 305.14zM504.17 492.64L569.12 530.14L569.12 605.14L504.17 642.64L439.21 605.14L439.21 530.14zM569.12 -69.86L634.07 -32.36L634.07 42.64L569.12 80.14L504.17 42.64L504.17 -32.36zM569.12 380.14L634.07 417.64L634.07 492.64L569.12 530.14L504.17 492.64L504.17 417.64zM634.07 492.64L699.03 530.14L699.03 605.14L634.07 642.64L569.12 605.14L569.12 530.14zM763.98 42.64L828.94 80.14L828.94 155.14L763.98 192.64L699.03 155.14L699.03 80.14zM763.98 492.64L828.94 530.14L828.94 605.14L763.98 642.64L699.03 605.14L699.03 530.14zM828.93 -69.86L893.89 -32.36L893.89 42.64L828.93 80.14L763.98 42.64L763.98 -32.36zM828.93 155.14L893.89 192.64L893.89 267.64L828.93 305.14L763.98 267.64L763.98 192.64zM893.89 267.64L958.84 305.14L958.84 380.14L893.89 417.64L828.93 380.14L828.93 305.14zM1088.75 -69.86L1153.7 -32.36L1153.7 42.64L1088.75 80.14L1023.8 42.64L1023.8 -32.36zM1153.7 42.64L1218.66 80.14L1218.66 155.14L1153.7 192.64L1088.75 155.14L1088.75 80.14zM1088.75 380.14L1153.7 417.64L1153.7 492.64L1088.75 530.14L1023.8 492.64L1023.8 417.64zM1153.7 492.64L1218.66 530.14L1218.66 605.14L1153.7 642.64L1088.75 605.14L1088.75 530.14zM1218.66 155.14L1283.61 192.64L1283.61 267.64L1218.66 305.14L1153.7 267.64L1153.7 192.64zM1283.61 267.64L1348.56 305.14L1348.56 380.14L1283.61 417.64L1218.66 380.14L1218.66 305.14zM1218.66 380.14L1283.61 417.64L1283.61 492.64L1218.66 530.14L1153.7 492.64L1153.7 417.64zM1543.43 492.64L1608.38 530.14L1608.38 605.14L1543.43 642.64L1478.47 605.14L1478.47 530.14z" stroke="#03305d" stroke-width="2"></path><path d="M106.94 267.64 a7.5 7.5 0 1 0 15 0 a7.5 7.5 0 1 0 -15 0zM171.9 305.14 a7.5 7.5 0 1 0 15 0 a7.5 7.5 0 1 0 -15 0zM171.9 380.14 a7.5 7.5 0 1 0 15 0 a7.5 7.5 0 1 0 -15 0zM106.94 417.64 a7.5 7.5 0 1 0 15 0 a7.5 7.5 0 1 0 -15 0zM41.99 380.14 a7.5 7.5 0 1 0 15 0 a7.5 7.5 0 1 0 -15 0zM41.99 305.14 a7.5 7.5 0 1 0 15 0 a7.5 7.5 0 1 0 -15 0zM106.94 492.64 a7.5 7.5 0 1 0 15 0 a7.5 7.5 0 1 0 -15 0zM41.99 530.14 a7.5 7.5 0 1 0 15 0 a7.5 7.5 0 1 0 -15 0zM-22.96 492.64 a7.5 7.5 0 1 0 15 0 a7.5 7.5 0 1 0 -15 0zM-22.96 417.64 a7.5 7.5 0 1 0 15 0 a7.5 7.5 0 1 0 -15 0zM171.9 -69.86 a7.5 7.5 0 1 0 15 0 a7.5 7.5 0 1 0 -15 0zM236.85 -32.36 a7.5 7.5 0 1 0 15 0 a7.5 7.5 0 1 0 -15 0zM236.85 42.64 a7.5 7.5 0 1 0 15 0 a7.5 7.5 0 1 0 -15 0zM171.9 80.14 a7.5 7.5 0 1 0 15 0 a7.5 7.5 0 1 0 -15 0zM106.94 42.64 a7.5 7.5 0 1 0 15 0 a7.5 7.5 0 1 0 -15 0zM106.94 -32.36 a7.5 7.5 0 1 0 15 0 a7.5 7.5 0 1 0 -15 0zM301.81 80.14 a7.5 7.5 0 1 0 15 0 a7.5 7.5 0 1 0 -15 0zM301.81 155.14 a7.5 7.5 0 1 0 15 0 a7.5 7.5 0 1 0 -15 0zM236.85 192.64 a7.5 7.5 0 1 0 15 0 a7.5 7.5 0 1 0 -15 0zM171.9 155.14 a7.5 7.5 0 1 0 15 0 a7.5 7.5 0 1 0 -15 0zM236.85 267.64 a7.5 7.5 0 1 0 15 0 a7.5 7.5 0 1 0 -15 0zM106.94 192.64 a7.5 7.5 0 1 0 15 0 a7.5 7.5 0 1 0 -15 0zM236.85 492.64 a7.5 7.5 0 1 0 15 0 a7.5 7.5 0 1 0 -15 0zM301.81 530.14 a7.5 7.5 0 1 0 15 0 a7.5 7.5 0 1 0 -15 0zM301.81 605.14 a7.5 7.5 0 1 0 15 0 a7.5 7.5 0 1 0 -15 0zM236.85 642.64 a7.5 7.5 0 1 0 15 0 a7.5 7.5 0 1 0 -15 0zM171.9 605.14 a7.5 7.5 0 1 0 15 0 a7.5 7.5 0 1 0 -15 0zM171.9 530.14 a7.5 7.5 0 1 0 15 0 a7.5 7.5 0 1 0 -15 0zM366.76 192.64 a7.5 7.5 0 1 0 15 0 a7.5 7.5 0 1 0 -15 0zM366.76 267.64 a7.5 7.5 0 1 0 15 0 a7.5 7.5 0 1 0 -15 0zM301.81 305.14 a7.5 7.5 0 1 0 15 0 a7.5 7.5 0 1 0 -15 0zM496.67 267.64 a7.5 7.5 0 1 0 15 0 a7.5 7.5 0 1 0 -15 0zM561.62 305.14 a7.5 7.5 0 1 0 15 0 a7.5 7.5 0 1 0 -15 0zM561.62 380.14 a7.5 7.5 0 1 0 15 0 a7.5 7.5 0 1 0 -15 0zM496.67 417.64 a7.5 7.5 0 1 0 15 0 a7.5 7.5 0 1 0 -15 0zM431.71 380.14 a7.5 7.5 0 1 0 15 0 a7.5 7.5 0 1 0 -15 0zM431.71 305.14 a7.5 7.5 0 1 0 15 0 a7.5 7.5 0 1 0 -15 0zM496.67 492.64 a7.5 7.5 0 1 0 15 0 a7.5 7.5 0 1 0 -15 0zM561.62 530.14 a7.5 7.5 0 1 0 15 0 a7.5 7.5 0 1 0 -15 0zM561.62 605.14 a7.5 7.5 0 1 0 15 0 a7.5 7.5 0 1 0 -15 0zM496.67 642.64 a7.5 7.5 0 1 0 15 0 a7.5 7.5 0 1 0 -15 0zM431.71 605.14 a7.5 7.5 0 1 0 15 0 a7.5 7.5 0 1 0 -15 0zM431.71 530.14 a7.5 7.5 0 1 0 15 0 a7.5 7.5 0 1 0 -15 0zM561.62 -69.86 a7.5 7.5 0 1 0 15 0 a7.5 7.5 0 1 0 -15 0zM626.57 -32.36 a7.5 7.5 0 1 0 15 0 a7.5 7.5 0 1 0 -15 0zM626.57 42.64 a7.5 7.5 0 1 0 15 0 a7.5 7.5 0 1 0 -15 0zM561.62 80.14 a7.5 7.5 0 1 0 15 0 a7.5 7.5 0 1 0 -15 0zM496.67 42.64 a7.5 7.5 0 1 0 15 0 a7.5 7.5 0 1 0 -15 0zM496.67 -32.36 a7.5 7.5 0 1 0 15 0 a7.5 7.5 0 1 0 -15 0zM626.57 417.64 a7.5 7.5 0 1 0 15 0 a7.5 7.5 0 1 0 -15 0zM626.57 492.64 a7.5 7.5 0 1 0 15 0 a7.5 7.5 0 1 0 -15 0zM691.53 530.14 a7.5 7.5 0 1 0 15 0 a7.5 7.5 0 1 0 -15 0zM691.53 605.14 a7.5 7.5 0 1 0 15 0 a7.5 7.5 0 1 0 -15 0zM626.57 642.64 a7.5 7.5 0 1 0 15 0 a7.5 7.5 0 1 0 -15 0zM756.48 42.64 a7.5 7.5 0 1 0 15 0 a7.5 7.5 0 1 0 -15 0zM821.44 80.14 a7.5 7.5 0 1 0 15 0 a7.5 7.5 0 1 0 -15 0zM821.44 155.14 a7.5 7.5 0 1 0 15 0 a7.5 7.5 0 1 0 -15 0zM756.48 192.64 a7.5 7.5 0 1 0 15 0 a7.5 7.5 0 1 0 -15 0zM691.53 155.14 a7.5 7.5 0 1 0 15 0 a7.5 7.5 0 1 0 -15 0zM691.53 80.14 a7.5 7.5 0 1 0 15 0 a7.5 7.5 0 1 0 -15 0zM756.48 492.64 a7.5 7.5 0 1 0 15 0 a7.5 7.5 0 1 0 -15 0zM821.44 530.14 a7.5 7.5 0 1 0 15 0 a7.5 7.5 0 1 0 -15 0zM821.44 605.14 a7.5 7.5 0 1 0 15 0 a7.5 7.5 0 1 0 -15 0zM756.48 642.64 a7.5 7.5 0 1 0 15 0 a7.5 7.5 0 1 0 -15 0zM821.43 -69.86 a7.5 7.5 0 1 0 15 0 a7.5 7.5 0 1 0 -15 0zM886.39 -32.36 a7.5 7.5 0 1 0 15 0 a7.5 7.5 0 1 0 -15 0zM886.39 42.64 a7.5 7.5 0 1 0 15 0 a7.5 7.5 0 1 0 -15 0zM821.43 80.14 a7.5 7.5 0 1 0 15 0 a7.5 7.5 0 1 0 -15 0zM756.48 -32.36 a7.5 7.5 0 1 0 15 0 a7.5 7.5 0 1 0 -15 0zM821.43 155.14 a7.5 7.5 0 1 0 15 0 a7.5 7.5 0 1 0 -15 0zM886.39 192.64 a7.5 7.5 0 1 0 15 0 a7.5 7.5 0 1 0 -15 0zM886.39 267.64 a7.5 7.5 0 1 0 15 0 a7.5 7.5 0 1 0 -15 0zM821.43 305.14 a7.5 7.5 0 1 0 15 0 a7.5 7.5 0 1 0 -15 0zM756.48 267.64 a7.5 7.5 0 1 0 15 0 a7.5 7.5 0 1 0 -15 0zM951.34 305.14 a7.5 7.5 0 1 0 15 0 a7.5 7.5 0 1 0 -15 0zM951.34 380.14 a7.5 7.5 0 1 0 15 0 a7.5 7.5 0 1 0 -15 0zM886.39 417.64 a7.5 7.5 0 1 0 15 0 a7.5 7.5 0 1 0 -15 0zM821.43 380.14 a7.5 7.5 0 1 0 15 0 a7.5 7.5 0 1 0 -15 0zM1081.25 -69.86 a7.5 7.5 0 1 0 15 0 a7.5 7.5 0 1 0 -15 0zM1146.2 -32.36 a7.5 7.5 0 1 0 15 0 a7.5 7.5 0 1 0 -15 0zM1146.2 42.64 a7.5 7.5 0 1 0 15 0 a7.5 7.5 0 1 0 -15 0zM1081.25 80.14 a7.5 7.5 0 1 0 15 0 a7.5 7.5 0 1 0 -15 0zM1016.3 42.64 a7.5 7.5 0 1 0 15 0 a7.5 7.5 0 1 0 -15 0zM1016.3 -32.36 a7.5 7.5 0 1 0 15 0 a7.5 7.5 0 1 0 -15 0zM1211.16 80.14 a7.5 7.5 0 1 0 15 0 a7.5 7.5 0 1 0 -15 0zM1211.16 155.14 a7.5 7.5 0 1 0 15 0 a7.5 7.5 0 1 0 -15 0zM1146.2 192.64 a7.5 7.5 0 1 0 15 0 a7.5 7.5 0 1 0 -15 0zM1081.25 155.14 a7.5 7.5 0 1 0 15 0 a7.5 7.5 0 1 0 -15 0zM1081.25 380.14 a7.5 7.5 0 1 0 15 0 a7.5 7.5 0 1 0 -15 0zM1146.2 417.64 a7.5 7.5 0 1 0 15 0 a7.5 7.5 0 1 0 -15 0zM1146.2 492.64 a7.5 7.5 0 1 0 15 0 a7.5 7.5 0 1 0 -15 0zM1081.25 530.14 a7.5 7.5 0 1 0 15 0 a7.5 7.5 0 1 0 -15 0zM1016.3 492.64 a7.5 7.5 0 1 0 15 0 a7.5 7.5 0 1 0 -15 0zM1016.3 417.64 a7.5 7.5 0 1 0 15 0 a7.5 7.5 0 1 0 -15 0zM1211.16 530.14 a7.5 7.5 0 1 0 15 0 a7.5 7.5 0 1 0 -15 0zM1211.16 605.14 a7.5 7.5 0 1 0 15 0 a7.5 7.5 0 1 0 -15 0zM1146.2 642.64 a7.5 7.5 0 1 0 15 0 a7.5 7.5 0 1 0 -15 0zM1081.25 605.14 a7.5 7.5 0 1 0 15 0 a7.5 7.5 0 1 0 -15 0zM1276.11 192.64 a7.5 7.5 0 1 0 15 0 a7.5 7.5 0 1 0 -15 0zM1276.11 267.64 a7.5 7.5 0 1 0 15 0 a7.5 7.5 0 1 0 -15 0zM1211.16 305.14 a7.5 7.5 0 1 0 15 0 a7.5 7.5 0 1 0 -15 0zM1146.2 267.64 a7.5 7.5 0 1 0 15 0 a7.5 7.5 0 1 0 -15 0zM1341.06 305.14 a7.5 7.5 0 1 0 15 0 a7.5 7.5 0 1 0 -15 0zM1341.06 380.14 a7.5 7.5 0 1 0 15 0 a7.5 7.5 0 1 0 -15 0zM1276.11 417.64 a7.5 7.5 0 1 0 15 0 a7.5 7.5 0 1 0 -15 0zM1211.16 380.14 a7.5 7.5 0 1 0 15 0 a7.5 7.5 0 1 0 -15 0zM1276.11 492.64 a7.5 7.5 0 1 0 15 0 a7.5 7.5 0 1 0 -15 0zM1535.93 492.64 a7.5 7.5 0 1 0 15 0 a7.5 7.5 0 1 0 -15 0zM1600.88 530.14 a7.5 7.5 0 1 0 15 0 a7.5 7.5 0 1 0 -15 0zM1600.88 605.14 a7.5 7.5 0 1 0 15 0 a7.5 7.5 0 1 0 -15 0zM1535.93 642.64 a7.5 7.5 0 1 0 15 0 a7.5 7.5 0 1 0 -15 0zM1470.97 605.14 a7.5 7.5 0 1 0 15 0 a7.5 7.5 0 1 0 -15 0zM1470.97 530.14 a7.5 7.5 0 1 0 15 0 a7.5 7.5 0 1 0 -15 0z" fill="#03305d"></path><path d="M164.23 351.38L207.53 376.38L207.53 426.38L164.23 451.38L120.93 426.38L120.93 376.38zM250.83 501.38L294.13 526.38L294.13 576.38L250.83 601.38L207.53 576.38L207.53 526.38zM294.13 126.38L337.44 151.38L337.44 201.38L294.13 226.38L250.83 201.38L250.83 151.38zM467.35 -23.62L510.65 1.38L510.65 51.38L467.35 76.38L424.04 51.38L424.04 1.38zM510.65 351.38L553.95 376.38L553.95 426.38L510.65 451.38L467.35 426.38L467.35 376.38zM553.95 126.38L597.25 151.38L597.25 201.38L553.95 226.38L510.65 201.38L510.65 151.38zM770.46 51.38L813.77 76.38L813.77 126.38L770.46 151.38L727.16 126.38L727.16 76.38zM813.77 126.38L857.07 151.38L857.07 201.38L813.77 226.38L770.46 201.38L770.46 151.38zM813.77 426.38L857.07 451.38L857.07 501.38L813.77 526.38L770.46 501.38L770.46 451.38zM900.37 -23.62L943.67 1.38L943.67 51.38L900.37 76.38L857.07 51.38L857.07 1.38zM900.37 426.38L943.67 451.38L943.67 501.38L900.37 526.38L857.07 501.38L857.07 451.38zM1030.28 351.38L1073.58 376.38L1073.58 426.38L1030.28 451.38L986.98 426.38L986.98 376.38zM1116.88 201.38L1160.18 226.38L1160.18 276.38L1116.88 301.38L1073.58 276.38L1073.58 226.38zM1203.49 351.38L1246.79 376.38L1246.79 426.38L1203.49 451.38L1160.18 426.38L1160.18 376.38zM1160.18 426.38L1203.49 451.38L1203.49 501.38L1160.18 526.38L1116.88 501.38L1116.88 451.38zM1290.09 201.38L1333.39 226.38L1333.39 276.38L1290.09 301.38L1246.79 276.38L1246.79 226.38zM1420 -23.62L1463.3 1.38L1463.3 51.38L1420 76.38L1376.7 51.38L1376.7 1.38zM1463.3 501.38L1506.61 526.38L1506.61 576.38L1463.3 601.38L1420 576.38L1420 526.38z" stroke="rgba(6, 80, 156, 0.93)" stroke-width="2"></path></g><defs><mask id="SvgjsMask1008"><rect width="1440" height="560" fill="#ffffff"></rect></mask><linearGradient x1="15.28%" y1="-39.29%" x2="84.72%" y2="139.29%" gradientUnits="userSpaceOnUse" id="SvgjsLinearGradient1009"><stop stop-color="#0e2a47" offset="0"></stop><stop stop-color="rgba(2, 0, 6, 0.02)" offset="1"></stop></linearGradient></defs></svg>